0
SECTION
2
HEADER
9
$ACADVER
1
AC1006
9
$INSUNITS
70
6
0
ENDSEC
0
SECTION
2
ENTITIES
0
POLYLINE
8
0
62
255
66
1
10
0
20
0
30
0
70
8
0
VERTEX
8
0
62
255
10
0.42818171
20
0.30833095
30
2.5
70
32
0
VERTEX
8
0
62
255
10
0.42818171
20
0.30833095
30
2.5
70
32
0
VERTEX
8
0
62
255
10
0.42818171
20
0.30833095
30
2.5
70
32
0
VERTEX
8
0
62
255
10
0.43113431
20
0.30832642
30
2.5
70
32
0
VERTEX
8
0
62
255
10
0.43274221
20
0.3084026
30
2.5
70
32
0
VERTEX
8
0
62
255
10
0.43274221
20
0.3084026
30
2.5
70
32
0
VERTEX
8
0
62
255
10
0.43274221
20
0.3084026
30
2.5
70
32
0
VERTEX
8
0
62
255
10
0.43274221
20
0.3084026
30
2.5
70
32
0
VERTEX
8
0
62
255
10
0.43274221
20
0.3084026
30
2.5
70
32
0
VERTEX
8
0
62
255
10
0.43274221
20
0.3084026
30
2.5
70
32
0
VERTEX
8
0
62
255
10
0.43274221
20
0.3084026
30
2.5
70
32
0
VERTEX
8
0
62
255
10
0.4328981
20
0.30841804
30
2.5
70
32
0
VERTEX
8
0
62
255
10
0.43391067
20
0.30841336
30
2.5
70
32
0
VERTEX
8
0
62
255
10
0.52197969
20
0.29953709
30
2.5
70
32
0
VERTEX
8
0
62
255
10
0.56569922
20
0.29552713
30
2.5
70
32
0
VERTEX
8
0
62
255
10
0.59462595
20
0.29423136
30
2.5
70
32
0
VERTEX
8
0
62
255
10
0.59462595
20
0.29423136
30
2.5
70
32
0
VERTEX
8
0
62
255
10
0.60533148
20
0.29416242
30
2.5
70
32
0
VERTEX
8
0
62
255
10
0.67758352
20
0.29808837
30
2.5
70
32
0
VERTEX
8
0
62
255
10
0.70099455
20
0.29793724
30
2.5
70
32
0
VERTEX
8
0
62
255
10
0.76506007
20
0.30017525
30
2.5
70
32
0
VERTEX
8
0
62
255
10
0.79817826
20
0.3024748
30
2.5
70
32
0
VERTEX
8
0
62
255
10
0.86862957
20
0.30336848
30
2.5
70
32
0
VERTEX
8
0
62
255
10
0.91883814
20
0.3046903
30
2.5
70
32
0
VERTEX
8
0
62
255
10
0.9263522
20
0.30543369
30
2.5
70
32
0
VERTEX
8
0
62
255
10
1.0299804
20
0.30684525
30
2.5
70
32
0
VERTEX
8
0
62
255
10
1.0310749
20
0.3068462
30
2.5
70
32
0
VERTEX
8
0
62
255
10
1.127395
20
0.30613557
30
2.5
70
32
0
VERTEX
8
0
62
255
10
1.1302166
20
0.30493432
30
2.5
70
32
0
VERTEX
8
0
62
255
10
1.2270721
20
0.30478412
30
2.5
70
32
0
VERTEX
8
0
62
255
10
1.2442482
20
0.30390215
30
2.5
70
32
0
VERTEX
8
0
62
255
10
1.2894799
20
0.30335841
30
2.5
70
32
0
VERTEX
8
0
62
255
10
1.3661797
20
0.29945692
30
2.5
70
32
0
VERTEX
8
0
62
255
10
1.377854
20
0.29920751
30
2.5
70
32
0
VERTEX
8
0
62
255
10
1.4002907
20
0.29765129
30
2.5
70
32
0
VERTEX
8
0
62
255
10
1.4309936
20
0.29741398
30
2.5
70
32
0
VERTEX
8
0
62
255
10
1.5131816
20
0.29865146
30
2.5
70
32
0
VERTEX
8
0
62
255
10
1.5497215
20
0.29878998
30
2.5
70
32
0
VERTEX
8
0
62
255
10
1.6338072
20
0.29843345
30
2.5
70
32
0
VERTEX
8
0
62
255
10
1.6464319
20
0.29811749
30
2.5
70
32
0
VERTEX
8
0
62
255
10
1.6952369
20
0.29777116
30
2.5
70
32
0
VERTEX
8
0
62
255
10
1.7319065
20
0.29656678
30
2.5
70
32
0
VERTEX
8
0
62
255
10
1.7531185
20
0.29622856
30
2.5
70
32
0
VERTEX
8
0
62
255
10
1.8114151
20
0.29706311
30
2.5
70
32
0
VERTEX
8
0
62
255
10
1.8618634
20
0.29728526
30
2.5
70
32
0
VERTEX
8
0
62
255
10
1.9143696
20
0.29688868
30
2.5
70
32
0
VERTEX
8
0
62
255
10
1.9669183
20
0.29684296
30
2.5
70
32
0
VERTEX
8
0
62
255
10
1.9825251
20
0.29710501
30
2.5
70
32
0
VERTEX
8
0
62
255
10
1.9833336
20
0.29710373
30
2.5
70
32
0
VERTEX
8
0
62
255
10
2.0675778
20
0.30103779
30
2.5
70
32
0
VERTEX
8
0
62
255
10
2.1731629
20
0.30189759
30
2.5
70
32
0
VERTEX
8
0
62
255
10
2.1766386
20
0.30169576
30
2.5
70
32
0
VERTEX
8
0
62
255
10
2.2272584
20
0.30051079
30
2.5
70
32
0
VERTEX
8
0
62
255
10
2.251826
20
0.30067688
30
2.5
70
32
0
VERTEX
8
0
62
255
10
2.3321571
20
0.29741153
30
2.5
70
32
0
VERTEX
8
0
62
255
10
2.3412747
20
0.29725918
30
2.5
70
32
0
VERTEX
8
0
62
255
10
2.3715158
20
0.29841709
30
2.5
70
32
0
VERTEX
8
0
62
255
10
2.4117475
20
0.30149451
30
2.5
70
32
0
VERTEX
8
0
62
255
10
2.4404979
20
0.30202547
30
2.5
70
32
0
VERTEX
8
0
62
255
10
2.5596814
20
0.30488095
30
2.5
70
32
0
VERTEX
8
0
62
255
10
2.5650256
20
0.30480915
30
2.5
70
32
0
VERTEX
8
0
62
255
10
2.6409566
20
0.30489606
30
2.5
70
32
0
VERTEX
8
0
62
255
10
2.674361
20
0.30317926
30
2.5
70
32
0
VERTEX
8
0
62
255
10
2.7197449
20
0.30261213
30
2.5
70
32
0
VERTEX
8
0
62
255
10
2.7215168
20
0.30294055
30
2.5
70
32
0
VERTEX
8
0
62
255
10
2.8060412
20
0.30382103
30
2.5
70
32
0
VERTEX
8
0
62
255
10
2.885489
20
0.30286986
30
2.5
70
32
0
VERTEX
8
0
62
255
10
2.8938758
20
0.30234209
30
2.5
70
32
0
VERTEX
8
0
62
255
10
3.3911426
20
-0.16368251
30
2.5
70
32
0
VERTEX
8
0
62
255
10
3.3911426
20
-0.16368251
30
2.5
70
32
0
VERTEX
8
0
62
255
10
3.3911426
20
-0.16368251
30
2.5
70
32
0
VERTEX
8
0
62
255
10
3.3911426
20
-0.16368251
30
2.5
70
32
0
VERTEX
8
0
62
255
10
3.3911426
20
-0.16368251
30
2.5
70
32
0
VERTEX
8
0
62
255
10
3.3911426
20
-0.16368251
30
2.5
70
32
0
VERTEX
8
0
62
255
10
3.3927734
20
-0.16176061
30
2.5
70
32
0
VERTEX
8
0
62
255
10
3.3948684
20
-0.16239496
30
2.5
70
32
0
VERTEX
8
0
62
255
10
3.3952236
20
-0.16507682
30
2.5
70
32
0
VERTEX
8
0
62
255
10
3.3968232
20
-0.16322431
30
2.5
70
32
0
VERTEX
8
0
62
255
10
3.3995576
20
-0.16380224
30
2.5
70
32
0
VERTEX
8
0
62
255
10
3.4235864
20
-0.15765715
30
2.5
70
32
0
VERTEX
8
0
62
255
10
3.4562602
20
-0.15320763
30
2.5
70
32
0
VERTEX
8
0
62
255
10
3.4980493
20
-0.15924211
30
2.5
70
32
0
VERTEX
8
0
62
255
10
3.544616
20
-0.14206037
30
2.5
70
32
0
VERTEX
8
0
62
255
10
3.5916138
20
-0.13435884
30
2.5
70
32
0
VERTEX
8
0
62
255
10
3.6133568
20
-0.13373657
30
2.5
70
32
0
VERTEX
8
0
62
255
10
3.6922047
20
-0.11340418
30
2.5
70
32
0
VERTEX
8
0
62
255
10
3.7059226
20
-0.11056204
30
2.5
70
32
0
VERTEX
8
0
62
255
10
3.7546089
20
-0.097518347
30
2.5
70
32
0
VERTEX
8
0
62
255
10
3.8225799
20
-0.093199492
30
2.5
70
32
0
VERTEX
8
0
62
255
10
3.8799374
20
-0.087148234
30
2.5
70
32
0
VERTEX
8
0
62
255
10
3.8953118
20
-0.085938357
30
2.5
70
32
0
VERTEX
8
0
62
255
10
3.9130032
20
-0.084452532
30
2.5
70
32
0
VERTEX
8
0
62
255
10
3.9380043
20
-0.074233674
30
2.5
70
32
0
VERTEX
8
0
62
255
10
3.9710488
20
-0.060332917
30
2.5
70
32
0
VERTEX
8
0
62
255
10
4.0411267
20
-0.039531372
30
2.5
70
32
0
VERTEX
8
0
62
255
10
4.0411263
20
-0.039531372
30
2.5
70
32
0
VERTEX
8
0
62
255
10
4.0810461
20
-0.022710228
30
2.5
70
32
0
VERTEX
8
0
62
255
10
4.1080055
20
-0.010831833
30
2.5
70
32
0
VERTEX
8
0
62
255
10
4.1080055
20
-0.010831833
30
2.5
70
32
0
VERTEX
8
0
62
255
10
4.1123242
20
-0.0072452547
30
2.5
70
32
0
VERTEX
8
0
62
255
10
4.1123247
20
-0.0072452547
30
2.5
70
32
0
VERTEX
8
0
62
255
10
4.1123247
20
-0.0072452547
30
2.5
70
32
0
VERTEX
8
0
62
255
10
4.1123238
20
-0.0072452547
30
2.5
70
32
0
VERTEX
8
0
62
255
10
4.1144419
20
-0.0016126633
30
2.5
70
32
0
VERTEX
8
0
62
255
10
4.1951318
20
0.18055138
30
2.5
70
32
0
VERTEX
8
0
62
255
10
4.255023
20
0.30919552
30
2.5
70
32
0
VERTEX
8
0
62
255
10
4.2634301
20
0.31695041
30
2.5
70
32
0
VERTEX
8
0
62
255
10
4.3088126
20
0.33608389
30
2.5
70
32
0
VERTEX
8
0
62
255
10
4.3117943
20
0.33796448
30
2.5
70
32
0
VERTEX
8
0
62
255
10
4.317914
20
0.34341556
30
2.5
70
32
0
VERTEX
8
0
62
255
10
4.3212466
20
0.3497324
30
2.5
70
32
0
VERTEX
8
0
62
255
10
4.3339982
20
0.41134125
30
2.5
70
32
0
VERTEX
8
0
62
255
10
4.325223
20
0.46335426
30
2.5
70
32
0
VERTEX
8
0
62
255
10
4.3448014
20
0.5443747
30
2.5
70
32
0
VERTEX
8
0
62
255
10
4.346467
20
0.59608424
30
2.5
70
32
0
VERTEX
8
0
62
255
10
4.3536882
20
0.65081966
30
2.5
70
32
0
VERTEX
8
0
62
255
10
4.3604951
20
0.71366054
30
2.5
70
32
0
VERTEX
8
0
62
255
10
4.3377752
20
0.77200681
30
2.5
70
32
0
VERTEX
8
0
62
255
10
4.3390789
20
0.85908568
30
2.5
70
32
0
VERTEX
8
0
62
255
10
4.3386564
20
0.90500528
30
2.5
70
32
0
VERTEX
8
0
62
255
10
4.3388662
20
0.95262897
30
2.5
70
32
0
VERTEX
8
0
62
255
10
4.329608
20
1.0358012
30
2.5
70
32
0
VERTEX
8
0
62
255
10
4.3264418
20
1.0933306
30
2.5
70
32
0
VERTEX
8
0
62
255
10
4.3237433
20
1.1466043
30
2.5
70
32
0
VERTEX
8
0
62
255
10
4.3243279
20
1.2231843
30
2.5
70
32
0
VERTEX
8
0
62
255
10
4.3206453
20
1.274586
30
2.5
70
32
0
VERTEX
8
0
62
255
10
4.3258152
20
1.3360801
30
2.5
70
32
0
VERTEX
8
0
62
255
10
4.3225555
20
1.4101387
30
2.5
70
32
0
VERTEX
8
0
62
255
10
4.3227272
20
1.4494792
30
2.5
70
32
0
VERTEX
8
0
62
255
10
4.3197527
20
1.507493
30
2.5
70
32
0
VERTEX
8
0
62
255
10
4.3208108
20
1.5908791
30
2.5
70
32
0
VERTEX
8
0
62
255
10
4.3215523
20
1.6472105
30
2.5
70
32
0
VERTEX
8
0
62
255
10
4.3140893
20
1.7198327
30
2.5
70
32
0
VERTEX
8
0
62
255
10
4.3120198
20
1.7611488
30
2.5
70
32
0
VERTEX
8
0
62
255
10
4.308938
20
1.8210808
30
2.5
70
32
0
VERTEX
8
0
62
255
10
4.3082533
20
1.8818363
30
2.5
70
32
0
VERTEX
8
0
62
255
10
4.3052702
20
1.9477351
30
2.5
70
32
0
VERTEX
8
0
62
255
10
4.308217
20
2.0027192
30
2.5
70
32
0
VERTEX
8
0
62
255
10
4.3058882
20
2.0756221
30
2.5
70
32
0
VERTEX
8
0
62
255
10
4.303843
20
2.1262755
30
2.5
70
32
0
VERTEX
8
0
62
255
10
4.3039274
20
2.1926193
30
2.5
70
32
0
VERTEX
8
0
62
255
10
4.3025751
20
2.2477908
30
2.5
70
32
0
VERTEX
8
0
62
255
10
4.301003
20
2.3127327
30
2.5
70
32
0
VERTEX
8
0
62
255
10
4.3061495
20
2.3676696
30
2.5
70
32
0
VERTEX
8
0
62
255
10
4.2965856
20
2.4410491
30
2.5
70
32
0
VERTEX
8
0
62
255
10
4.2931757
20
2.5012345
30
2.5
70
32
0
VERTEX
8
0
62
255
10
4.2967401
20
2.5508447
30
2.5
70
32
0
VERTEX
8
0
62
255
10
4.2936172
20
2.6246395
30
2.5
70
32
0
VERTEX
8
0
62
255
10
4.2948923
20
2.6856215
30
2.5
70
32
0
VERTEX
8
0
62
255
10
4.2957163
20
2.7534566
30
2.5
70
32
0
VERTEX
8
0
62
255
10
4.2954035
20
2.8094184
30
2.5
70
32
0
VERTEX
8
0
62
255
10
4.2957182
20
2.87462
30
2.5
70
32
0
VERTEX
8
0
62
255
10
4.2992964
20
2.9337842
30
2.5
70
32
0
VERTEX
8
0
62
255
10
4.2974939
20
2.9908881
30
2.5
70
32
0
VERTEX
8
0
62
255
10
4.2983255
20
3.0581563
30
2.5
70
32
0
VERTEX
8
0
62
255
10
4.300971
20
3.1119695
30
2.5
70
32
0
VERTEX
8
0
62
255
10
4.2987714
20
3.1785433
30
2.5
70
32
0
VERTEX
8
0
62
255
10
4.2974863
20
3.2345181
30
2.5
70
32
0
VERTEX
8
0
62
255
10
4.2985868
20
3.3073707
30
2.5
70
32
0
VERTEX
8
0
62
255
10
4.3015604
20
3.3551166
30
2.5
70
32
0
VERTEX
8
0
62
255
10
4.3041568
20
3.4350162
30
2.5
70
32
0
VERTEX
8
0
62
255
10
4.2995787
20
3.4867294
30
2.5
70
32
0
VERTEX
8
0
62
255
10
4.3002572
20
3.5476692
30
2.5
70
32
0
VERTEX
8
0
62
255
10
4.3009558
20
3.6101899
30
2.5
70
32
0
VERTEX
8
0
62
255
10
4.3051281
20
3.6649919
30
2.5
70
32
0
VERTEX
8
0
62
255
10
4.3061156
20
3.7346504
30
2.5
70
32
0
VERTEX
8
0
62
255
10
4.3059254
20
3.797236
30
2.5
70
32
0
VERTEX
8
0
62
255
10
4.3072224
20
3.8671615
30
2.5
70
32
0
VERTEX
8
0
62
255
10
4.3050337
20
3.9218669
30
2.5
70
32
0
VERTEX
8
0
62
255
10
4.3092217
20
3.9917653
30
2.5
70
32
0
VERTEX
8
0
62
255
10
4.3057036
20
4.0396628
30
2.5
70
32
0
VERTEX
8
0
62
255
10
4.31075
20
4.1075644
30
2.5
70
32
0
VERTEX
8
0
62
255
10
4.3070583
20
4.1633277
30
2.5
70
32
0
VERTEX
8
0
62
255
10
4.3079591
20
4.2276506
30
2.5
70
32
0
VERTEX
8
0
62
255
10
4.3084288
20
4.2885756
30
2.5
70
32
0
VERTEX
8
0
62
255
10
4.3091192
20
4.3485436
30
2.5
70
32
0
VERTEX
8
0
62
255
10
4.3153276
20
4.4265432
30
2.5
70
32
0
VERTEX
8
0
62
255
10
4.310461
20
4.4707117
30
2.5
70
32
0
VERTEX
8
0
62
255
10
4.3111467
20
4.5341949
30
2.5
70
32
0
VERTEX
8
0
62
255
10
4.3178577
20
4.6078806
30
2.5
70
32
0
VERTEX
8
0
62
255
10
4.3138661
20
4.6569738
30
2.5
70
32
0
VERTEX
8
0
62
255
10
4.3179641
20
4.7130651
30
2.5
70
32
0
VERTEX
8
0
62
255
10
4.3148007
20
4.7722759
30
2.5
70
32
0
VERTEX
8
0
62
255
10
4.3169417
20
4.8461142
30
2.5
70
32
0
VERTEX
8
0
62
255
10
4.3173418
20
4.9065199
30
2.5
70
32
0
VERTEX
8
0
62
255
10
4.3165636
20
4.961513
30
2.5
70
32
0
VERTEX
8
0
62
255
10
4.3170023
20
5.0248847
30
2.5
70
32
0
VERTEX
8
0
62
255
10
4.3174124
20
5.086637
30
2.5
70
32
0
VERTEX
8
0
62
255
10
4.3180285
20
5.150507
30
2.5
70
32
0
VERTEX
8
0
62
255
10
4.3186979
20
5.2098794
30
2.5
70
32
0
VERTEX
8
0
62
255
10
4.3342829
20
5.2647104
30
2.5
70
32
0
VERTEX
8
0
62
255
10
4.3421583
20
5.3369756
30
2.5
70
32
0
VERTEX
8
0
62
255
10
4.3384638
20
5.387773
30
2.5
70
32
0
VERTEX
8
0
62
255
10
4.3307848
20
5.4678235
30
2.5
70
32
0
VERTEX
8
0
62
255
10
4.3350434
20
5.5096555
30
2.5
70
32
0
VERTEX
8
0
62
255
10
4.334012
20
5.5494781
30
2.5
70
32
0
VERTEX
8
0
62
255
10
4.3014035
20
5.5849304
30
2.5
70
32
0
VERTEX
8
0
62
255
10
4.2972593
20
5.5885515
30
2.5
70
32
0
VERTEX
8
0
62
255
10
4.2973776
20
5.5888195
30
2.5
70
32
0
VERTEX
8
0
62
255
10
4.2973776
20
5.5888195
30
2.5
70
32
0
VERTEX
8
0
62
255
10
4.2974634
20
5.5890455
30
2.5
70
32
0
VERTEX
8
0
62
255
10
4.2486029
20
5.6113257
30
2.5
70
32
0
VERTEX
8
0
62
255
10
4.2486029
20
5.6113257
30
2.5
70
32
0
VERTEX
8
0
62
255
10
4.2100043
20
5.6237683
30
2.5
70
32
0
VERTEX
8
0
62
255
10
4.2100043
20
5.6237683
30
2.5
70
32
0
VERTEX
8
0
62
255
10
4.1972399
20
5.6263895
30
2.5
70
32
0
VERTEX
8
0
62
255
10
4.1865072
20
5.6275511
30
2.5
70
32
0
VERTEX
8
0
62
255
10
4.1809244
20
5.6277199
30
2.5
70
32
0
VERTEX
8
0
62
255
10
4.1125317
20
5.6219964
30
2.5
70
32
0
VERTEX
8
0
62
255
10
4.1125317
20
5.6219964
30
2.5
70
32
0
VERTEX
8
0
62
255
10
4.035871
20
5.6147842
30
2.5
70
32
0
VERTEX
8
0
62
255
10
4.0063186
20
5.6130996
30
2.5
70
32
0
VERTEX
8
0
62
255
10
3.9373009
20
5.6063685
30
2.5
70
32
0
VERTEX
8
0
62
255
10
3.927197
20
5.6059818
30
2.5
70
32
0
VERTEX
8
0
62
255
10
3.8529828
20
5.6069503
30
2.5
70
32
0
VERTEX
8
0
62
255
10
3.8416131
20
5.6046743
30
2.5
70
32
0
VERTEX
8
0
62
255
10
3.7882276
20
5.5953531
30
2.5
70
32
0
VERTEX
8
0
62
255
10
3.7130036
20
5.5938387
30
2.5
70
32
0
VERTEX
8
0
62
255
10
3.6588173
20
5.5963993
30
2.5
70
32
0
VERTEX
8
0
62
255
10
3.645308
20
5.5924039
30
2.5
70
32
0
VERTEX
8
0
62
255
10
3.5611222
20
5.5874624
30
2.5
70
32
0
VERTEX
8
0
62
255
10
3.490191
20
5.5901775
30
2.5
70
32
0
VERTEX
8
0
62
255
10
3.4389451
20
5.594162
30
2.5
70
32
0
VERTEX
8
0
62
255
10
3.4314098
20
5.594943
30
2.5
70
32
0
VERTEX
8
0
62
255
10
3.4314103
20
5.594943
30
2.5
70
32
0
VERTEX
8
0
62
255
10
3.4242561
20
5.5937715
30
2.5
70
32
0
VERTEX
8
0
62
255
10
3.267257
20
5.5811629
30
2.5
70
32
0
VERTEX
8
0
62
255
10
3.2528672
20
5.5808454
30
2.5
70
32
0
VERTEX
8
0
62
255
10
3.206897
20
5.5846047
30
2.5
70
32
0
VERTEX
8
0
62
255
10
3.1461599
20
5.5828371
30
2.5
70
32
0
VERTEX
8
0
62
255
10
3.133137
20
5.5821366
30
2.5
70
32
0
VERTEX
8
0
62
255
10
3.0739179
20
5.5823927
30
2.5
70
32
0
VERTEX
8
0
62
255
10
3.0310843
20
5.5825462
30
2.5
70
32
0
VERTEX
8
0
62
255
10
3.017056
20
5.5815539
30
2.5
70
32
0
VERTEX
8
0
62
255
10
2.9506755
20
5.5759735
30
2.5
70
32
0
VERTEX
8
0
62
255
10
2.9296422
20
5.5760589
30
2.5
70
32
0
VERTEX
8
0
62
255
10
2.8791225
20
5.5647335
30
2.5
70
32
0
VERTEX
8
0
62
255
10
2.8010488
20
5.5572243
30
2.5
70
32
0
VERTEX
8
0
62
255
10
2.7570789
20
5.5574427
30
2.5
70
32
0
VERTEX
8
0
62
255
10
2.7117603
20
5.5576677
30
2.5
70
32
0
VERTEX
8
0
62
255
10
2.6662242
20
5.5578966
30
2.5
70
32
0
VERTEX
8
0
62
255
10
2.6232142
20
5.5581198
30
2.5
70
32
0
VERTEX
8
0
62
255
10
2.577455
20
5.5583453
30
2.5
70
32
0
VERTEX
8
0
62
255
10
2.5319064
20
5.5585814
30
2.5
70
32
0
VERTEX
8
0
62
255
10
2.4888587
20
5.5587935
30
2.5
70
32
0
VERTEX
8
0
62
255
10
2.4420111
20
5.559032
30
2.5
70
32
0
VERTEX
8
0
62
255
10
2.3979044
20
5.5592475
30
2.5
70
32
0
VERTEX
8
0
62
255
10
2.3537891
20
5.5594811
30
2.5
70
32
0
VERTEX
8
0
62
255
10
2.3070562
20
5.5597181
30
2.5
70
32
0
VERTEX
8
0
62
255
10
2.2629464
20
5.5599346
30
2.5
70
32
0
VERTEX
8
0
62
255
10
2.1126652
20
5.5808773
30
2.5
70
32
0
VERTEX
8
0
62
255
10
2.0971839
20
5.5863643
30
2.5
70
32
0
VERTEX
8
0
62
255
10
2.0824065
20
5.589839
30
2.5
70
32
0
VERTEX
8
0
62
255
10
2.0760138
20
5.5904369
30
2.5
70
32
0
VERTEX
8
0
62
255
10
2.0701091
20
5.5897622
30
2.5
70
32
0
VERTEX
8
0
62
255
10
2.0108294
20
5.5833921
30
2.5
70
32
0
VERTEX
8
0
62
255
10
1.9143183
20
5.5858741
30
2.5
70
32
0
VERTEX
8
0
62
255
10
1.9036869
20
5.5882006
30
2.5
70
32
0
VERTEX
8
0
62
255
10
1.8247761
20
5.5886183
30
2.5
70
32
0
VERTEX
8
0
62
255
10
1.8210388
20
5.5887337
30
2.5
70
32
0
VERTEX
8
0
62
255
10
1.7342579
20
5.5913095
30
2.5
70
32
0
VERTEX
8
0
62
255
10
1.7305233
20
5.5914755
30
2.5
70
32
0
VERTEX
8
0
62
255
10
1.6765022
20
5.593781
30
2.5
70
32
0
VERTEX
8
0
62
255
10
1.6222454
20
5.5929933
30
2.5
70
32
0
VERTEX
8
0
62
255
10
1.5889052
20
5.5926867
30
2.5
70
32
0
VERTEX
8
0
62
255
10
1.4745442
20
5.6022477
30
2.5
70
32
0
VERTEX
8
0
62
255
10
1.4668901
20
5.603219
30
2.5
70
32
0
VERTEX
8
0
62
255
10
1.4594996
20
5.603415
30
2.5
70
32
0
VERTEX
8
0
62
255
10
1.4328588
20
5.6026793
30
2.5
70
32
0
VERTEX
8
0
62
255
10
1.3553376
20
5.6002154
30
2.5
70
32
0
VERTEX
8
0
62
255
10
1.3423827
20
5.5997934
30
2.5
70
32
0
VERTEX
8
0
62
255
10
1.2432932
20
5.6052537
30
2.5
70
32
0
VERTEX
8
0
62
255
10
1.2395923
20
5.605382
30
2.5
70
32
0
VERTEX
8
0
62
255
10
1.2372364
20
5.6052752
30
2.5
70
32
0
VERTEX
8
0
62
255
10
1.2141632
20
5.6026421
30
2.5
70
32
0
VERTEX
8
0
62
255
10
1.0671587
20
5.5974226
30
2.5
70
32
0
VERTEX
8
0
62
255
10
1.0260544
20
5.6001554
30
2.5
70
32
0
VERTEX
8
0
62
255
10
0.97253525
20
5.6059027
30
2.5
70
32
0
VERTEX
8
0
62
255
10
0.95559061
20
5.6071424
30
2.5
70
32
0
VERTEX
8
0
62
255
10
0.93475962
20
5.6069274
30
2.5
70
32
0
VERTEX
8
0
62
255
10
0.85091972
20
5.6069679
30
2.5
70
32
0
VERTEX
8
0
62
255
10
0.74397326
20
5.6177239
30
2.5
70
32
0
VERTEX
8
0
62
255
10
0.74045742
20
5.6185884
30
2.5
70
32
0
VERTEX
8
0
62
255
10
0.73579961
20
5.6188316
30
2.5
70
32
0
VERTEX
8
0
62
255
10
0.71333271
20
5.6190128
30
2.5
70
32
0
VERTEX
8
0
62
255
10
0.63419276
20
5.6200562
30
2.5
70
32
0
VERTEX
8
0
62
255
10
0.5881564
20
5.6208315
30
2.5
70
32
0
VERTEX
8
0
62
255
10
0.52764535
20
5.6248727
30
2.5
70
32
0
VERTEX
8
0
62
255
10
0.52455908
20
5.6249323
30
2.5
70
32
0
VERTEX
8
0
62
255
10
0.38115555
20
5.8813539
30
2.5
70
32
0
VERTEX
8
0
62
255
10
0.38001618
20
5.8792458
30
2.5
70
32
0
VERTEX
8
0
62
255
10
0.37771049
20
5.8904476
30
2.5
70
32
0
VERTEX
8
0
62
255
10
0.37771049
20
5.8904476
30
2.5
70
32
0
VERTEX
8
0
62
255
10
0.37771049
20
5.8904476
30
2.5
70
32
0
VERTEX
8
0
62
255
10
0.37771049
20
5.8904476
30
2.5
70
32
0
VERTEX
8
0
62
255
10
0.37771049
20
5.8904471
30
2.5
70
32
0
VERTEX
8
0
62
255
10
0.37771049
20
5.8904471
30
2.5
70
32
0
VERTEX
8
0
62
255
10
0.37649199
20
5.9009962
30
2.5
70
32
0
VERTEX
8
0
62
255
10
0.37233818
20
5.9073229
30
2.5
70
32
0
VERTEX
8
0
62
255
10
0.36662585
20
5.9176693
30
2.5
70
32
0
VERTEX
8
0
62
255
10
0.36099976
20
5.9359374
30
2.5
70
32
0
VERTEX
8
0
62
255
10
0.36099976
20
5.9359374
30
2.5
70
32
0
VERTEX
8
0
62
255
10
0.36099976
20
5.9359374
30
2.5
70
32
0
VERTEX
8
0
62
255
10
0.36099976
20
5.9359374
30
2.5
70
32
0
VERTEX
8
0
62
255
10
0.36801782
20
5.8830576
30
2.5
70
32
0
VERTEX
8
0
62
255
10
0.38085395
20
5.8159895
30
2.5
70
32
0
VERTEX
8
0
62
255
10
0.40346926
20
5.5355554
30
2.5
70
32
0
VERTEX
8
0
62
255
10
0.39757067
20
5.5231295
30
2.5
70
32
0
VERTEX
8
0
62
255
10
0.38664246
20
5.4951639
30
2.5
70
32
0
VERTEX
8
0
62
255
10
0.38434324
20
5.4779763
30
2.5
70
32
0
VERTEX
8
0
62
255
10
0.38435113
20
5.4654989
30
2.5
70
32
0
VERTEX
8
0
62
255
10
0.38435113
20
5.4654989
30
2.5
70
32
0
VERTEX
8
0
62
255
10
0.38579968
20
5.455471
30
2.5
70
32
0
VERTEX
8
0
62
255
10
0.38885495
20
5.4378018
30
2.5
70
32
0
VERTEX
8
0
62
255
10
0.40342188
20
5.3200026
30
2.5
70
32
0
VERTEX
8
0
62
255
10
0.41086221
20
5.2132215
30
2.5
70
32
0
VERTEX
8
0
62
255
10
0.41332322
20
5.1411409
30
2.5
70
32
0
VERTEX
8
0
62
255
10
0.41386548
20
5.0941725
30
2.5
70
32
0
VERTEX
8
0
62
255
10
0.40907916
20
4.9744396
30
2.5
70
32
0
VERTEX
8
0
62
255
10
0.40864748
20
4.9424009
30
2.5
70
32
0
VERTEX
8
0
62
255
10
0.40875769
20
4.9059672
30
2.5
70
32
0
VERTEX
8
0
62
255
10
0.41170806
20
4.8643541
30
2.5
70
32
0
VERTEX
8
0
62
255
10
0.41430506
20
4.8266363
30
2.5
70
32
0
VERTEX
8
0
62
255
10
0.41924882
20
4.7206483
30
2.5
70
32
0
VERTEX
8
0
62
255
10
0.41612095
20
4.6196947
30
2.5
70
32
0
VERTEX
8
0
62
255
10
0.41382161
20
4.57689
30
2.5
70
32
0
VERTEX
8
0
62
255
10
0.41357946
20
4.5606241
30
2.5
70
32
0
VERTEX
8
0
62
255
10
0.41661042
20
4.4608765
30
2.5
70
32
0
VERTEX
8
0
62
255
10
0.41653067
20
4.4394884
30
2.5
70
32
0
VERTEX
8
0
62
255
10
0.41650796
20
4.3086972
30
2.5
70
32
0
VERTEX
8
0
62
255
10
0.41523424
20
4.280529
30
2.5
70
32
0
VERTEX
8
0
62
255
10
0.41568762
20
4.2667208
30
2.5
70
32
0
VERTEX
8
0
62
255
10
0.41623735
20
4.1436324
30
2.5
70
32
0
VERTEX
8
0
62
255
10
0.41865033
20
4.1104174
30
2.5
70
32
0
VERTEX
8
0
62
255
10
0.41285267
20
3.9875541
30
2.5
70
32
0
VERTEX
8
0
62
255
10
0.40987149
20
3.9535217
30
2.5
70
32
0
VERTEX
8
0
62
255
10
0.40937701
20
3.9290175
30
2.5
70
32
0
VERTEX
8
0
62
255
10
0.40997162
20
3.8761196
30
2.5
70
32
0
VERTEX
8
0
62
255
10
0.4114849
20
3.7839942
30
2.5
70
32
0
VERTEX
8
0
62
255
10
0.41210365
20
3.7431831
30
2.5
70
32
0
VERTEX
8
0
62
255
10
0.41315293
20
3.7258747
30
2.5
70
32
0
VERTEX
8
0
62
255
10
0.41218019
20
3.5690467
30
2.5
70
32
0
VERTEX
8
0
62
255
10
0.41038966
20
3.5599313
30
2.5
70
32
0
VERTEX
8
0
62
255
10
0.41547737
20
3.4815106
30
2.5
70
32
0
VERTEX
8
0
62
255
10
0.41633081
20
3.4642467
30
2.5
70
32
0
VERTEX
8
0
62
255
10
0.41370431
20
3.34339
30
2.5
70
32
0
VERTEX
8
0
62
255
10
0.40875754
20
3.3076129
30
2.5
70
32
0
VERTEX
8
0
62
255
10
0.41397429
20
3.1999314
30
2.5
70
32
0
VERTEX
8
0
62
255
10
0.41373244
20
3.1901734
30
2.5
70
32
0
VERTEX
8
0
62
255
10
0.41235763
20
3.0904529
30
2.5
70
32
0
VERTEX
8
0
62
255
10
0.41274628
20
3.0484662
30
2.5
70
32
0
VERTEX
8
0
62
255
10
0.4117547
20
3.0038848
30
2.5
70
32
0
VERTEX
8
0
62
255
10
0.41301423
20
2.9483302
30
2.5
70
32
0
VERTEX
8
0
62
255
10
0.41544819
20
2.8933547
30
2.5
70
32
0
VERTEX
8
0
62
255
10
0.41296482
20
2.772455
30
2.5
70
32
0
VERTEX
8
0
62
255
10
0.40970689
20
2.7071905
30
2.5
70
32
0
VERTEX
8
0
62
255
10
0.40952438
20
2.6897182
30
2.5
70
32
0
VERTEX
8
0
62
255
10
0.41090044
20
2.6069856
30
2.5
70
32
0
VERTEX
8
0
62
255
10
0.41116276
20
2.5965266
30
2.5
70
32
0
VERTEX
8
0
62
255
10
0.41194898
20
2.5163293
30
2.5
70
32
0
VERTEX
8
0
62
255
10
0.40993959
20
2.4038484
30
2.5
70
32
0
VERTEX
8
0
62
255
10
0.41000405
20
2.4012363
30
2.5
70
32
0
VERTEX
8
0
62
255
10
0.41482276
20
2.3695531
30
2.5
70
32
0
VERTEX
8
0
62
255
10
0.41590244
20
2.361656
30
2.5
70
32
0
VERTEX
8
0
62
255
10
0.42907229
20
2.19696
30
2.5
70
32
0
VERTEX
8
0
62
255
10
0.42432269
20
2.0730937
30
2.5
70
32
0
VERTEX
8
0
62
255
10
0.42421943
20
2.0716414
30
2.5
70
32
0
VERTEX
8
0
62
255
10
0.42426157
20
2.0702622
30
2.5
70
32
0
VERTEX
8
0
62
255
10
0.42639703
20
1.9727211
30
2.5
70
32
0
VERTEX
8
0
62
255
10
0.43129978
20
1.8863962
30
2.5
70
32
0
VERTEX
8
0
62
255
10
0.42740154
20
1.8130831
30
2.5
70
32
0
VERTEX
8
0
62
255
10
0.42821532
20
1.7756897
30
2.5
70
32
0
VERTEX
8
0
62
255
10
0.4289763
20
1.6938381
30
2.5
70
32
0
VERTEX
8
0
62
255
10
0.4291009
20
1.6534103
30
2.5
70
32
0
VERTEX
8
0
62
255
10
0.43002915
20
1.5757434
30
2.5
70
32
0
VERTEX
8
0
62
255
10
0.43054074
20
1.5287209
30
2.5
70
32
0
VERTEX
8
0
62
255
10
0.43246818
20
1.4486818
30
2.5
70
32
0
VERTEX
8
0
62
255
10
0.43130797
20
1.3871421
30
2.5
70
32
0
VERTEX
8
0
62
255
10
0.43043965
20
1.3107206
30
2.5
70
32
0
VERTEX
8
0
62
255
10
0.43039113
20
1.2618884
30
2.5
70
32
0
VERTEX
8
0
62
255
10
0.42837
20
1.2118568
30
2.5
70
32
0
VERTEX
8
0
62
255
10
0.42850667
20
1.1983083
30
2.5
70
32
0
VERTEX
8
0
62
255
10
0.43114629
20
1.0421011
30
2.5
70
32
0
VERTEX
8
0
62
255
10
0.43087369
20
1.0345829
30
2.5
70
32
0
VERTEX
8
0
62
255
10
0.43354291
20
0.96402514
30
2.5
70
32
0
VERTEX
8
0
62
255
10
0.43175539
20
0.89853507
30
2.5
70
32
0
VERTEX
8
0
62
255
10
0.43040165
20
0.83242035
30
2.5
70
32
0
VERTEX
8
0
62
255
10
0.43001175
20
0.79202759
30
2.5
70
32
0
VERTEX
8
0
62
255
10
0.42656985
20
0.70225412
30
2.5
70
32
0
VERTEX
8
0
62
255
10
0.41185814
20
0.58401358
30
2.5
70
32
0
VERTEX
8
0
62
255
10
0.40696937
20
0.55762649
30
2.5
70
32
0
VERTEX
8
0
62
255
10
0.40602303
20
0.53133088
30
2.5
70
32
0
VERTEX
8
0
62
255
10
0.40809911
20
0.43182054
30
2.5
70
32
0
VERTEX
8
0
62
255
10
0.40808266
20
0.43000168
30
2.5
70
32
0
VERTEX
8
0
62
255
10
0.40945467
20
0.40736309
30
2.5
70
32
0
VERTEX
8
0
62
255
10
0.41386002
20
0.36871281
30
2.5
70
32
0
VERTEX
8
0
62
255
10
0.4151383
20
0.36265397
30
2.5
70
32
0
VERTEX
8
0
62
255
10
0.42661825
20
0.31722388
30
2.5
70
32
0
VERTEX
8
0
62
255
10
0.42818171
20
0.30833095
30
2.5
70
32
0
VERTEX
8
0
62
255
10
0.42818171
20
0.30833095
30
2.5
70
32
0
VERTEX
8
0
62
255
10
0.42818171
20
0.30833095
30
2.5
70
32
0
VERTEX
8
0
62
255
10
0.42818171
20
0.30833095
30
2.5
70
32
0
VERTEX
8
0
62
255
10
0.42818171
20
0.30833095
30
2.5
70
32
0
VERTEX
8
0
62
255
10
0.42818171
20
0.30833095
30
2.5
70
32
0
SEQEND
8
0
0
ENDSEC
0
EOF
